<svg width="270" height="311" viewBox="0 0 270 311" fill="none" xmlns="http://www.w3.org/2000/svg">
<path d="M134.667 14.7457L256.564 85.1228V225.877L134.667 296.254L12.7701 225.877V85.1228L134.667 14.7457Z" fill="url(#paint0_linear_4_178)"/>
<path d="M1.5 78.616L134.667 1.73205L267.834 78.616V232.384L134.667 309.268L1.5 232.384V78.616Z" stroke="url(#paint1_linear_4_178)" stroke-width="3"/>
<path d="M182.125 133.333H108.042C106.638 133.333 105.292 132.776 104.3 131.783C103.308 130.791 102.75 129.445 102.75 128.042C102.75 126.638 103.308 125.292 104.3 124.3C105.292 123.308 106.638 122.75 108.042 122.75H182.125C183.528 122.75 184.874 123.308 185.867 124.3C186.859 125.292 187.417 126.638 187.417 128.042C187.417 129.445 186.859 130.791 185.867 131.783C184.874 132.776 183.528 133.333 182.125 133.333ZM182.125 159.792H108.042C106.638 159.792 105.292 159.234 104.3 158.242C103.308 157.249 102.75 155.903 102.75 154.5C102.75 153.097 103.308 151.751 104.3 150.758C105.292 149.766 106.638 149.208 108.042 149.208H182.125C183.528 149.208 184.874 149.766 185.867 150.758C186.859 151.751 187.417 153.097 187.417 154.5C187.417 155.903 186.859 157.249 185.867 158.242C184.874 159.234 183.528 159.792 182.125 159.792ZM182.125 186.25H108.042C106.638 186.25 105.292 185.692 104.3 184.7C103.308 183.708 102.75 182.362 102.75 180.958C102.75 179.555 103.308 178.209 104.3 177.217C105.292 176.224 106.638 175.667 108.042 175.667H182.125C183.528 175.667 184.874 176.224 185.867 177.217C186.859 178.209 187.417 179.555 187.417 180.958C187.417 182.362 186.859 183.708 185.867 184.7C184.874 185.692 183.528 186.25 182.125 186.25ZM86.875 133.333C86.1828 133.325 85.499 133.181 84.8622 132.91C84.2217 132.641 83.6318 132.266 83.1179 131.799C82.6506 131.284 82.2741 130.693 82.0043 130.052C81.7265 129.418 81.5831 128.734 81.5831 128.042C81.5831 127.35 81.7265 126.665 82.0043 126.032C82.2728 125.39 82.6495 124.799 83.1179 124.285C83.8611 123.549 84.8059 123.051 85.8327 122.853C86.8594 122.655 87.9217 122.767 88.885 123.173C89.5328 123.429 90.1257 123.806 90.6321 124.285C91.0989 124.8 91.4747 125.39 91.7433 126.031C92.0228 126.665 92.1671 127.349 92.1671 128.041C92.1671 128.734 92.0228 129.418 91.7433 130.052C91.4735 130.692 91.0978 131.283 90.6321 131.799C90.1391 132.291 89.5529 132.68 88.9079 132.944C88.2628 133.207 87.5718 133.34 86.875 133.333ZM86.875 159.792C86.1828 159.783 85.499 159.639 84.8622 159.368C84.2217 159.1 83.6318 158.724 83.1179 158.257C82.6506 157.742 82.2741 157.151 82.0043 156.51C81.7265 155.877 81.5831 155.192 81.5831 154.5C81.5831 153.808 81.7265 153.124 82.0043 152.49C82.2604 151.842 82.6384 151.249 83.1179 150.743C83.6317 150.276 84.2216 149.9 84.862 149.632C85.8258 149.225 86.8886 149.113 87.9157 149.311C88.9429 149.509 89.8883 150.007 90.6321 150.743C91.1099 151.249 91.4871 151.842 91.7433 152.49C92.0228 153.123 92.1671 153.808 92.1671 154.5C92.1671 155.192 92.0228 155.877 91.7433 156.51C91.4735 157.15 91.0978 157.741 90.6321 158.257C90.1174 158.724 89.5266 159.1 88.8854 159.368C88.2494 159.639 87.5664 159.783 86.875 159.792ZM86.875 186.25C86.1828 186.242 85.499 186.098 84.8622 185.826C84.2217 185.558 83.6318 185.182 83.1179 184.715C82.378 183.975 81.8765 183.03 81.678 182.002C81.4796 180.975 81.5932 179.911 82.0043 178.948C82.2604 178.3 82.6384 177.707 83.1179 177.201C83.6228 176.723 84.2149 176.345 84.862 176.09C86.1502 175.558 87.5968 175.558 88.885 176.09C89.5326 176.346 90.1254 176.723 90.6317 177.201C91.1095 177.708 91.4866 178.3 91.7429 178.948C92.1558 179.91 92.2707 180.974 92.0727 182.002C91.8746 183.03 91.3728 183.975 90.6321 184.715C90.1174 185.183 89.5266 185.558 88.8854 185.827C88.2494 186.098 87.5664 186.242 86.875 186.25Z" fill="white"/>
<defs>
<linearGradient id="paint0_linear_4_178" x1="134.667" y1="14.7457" x2="134.667" y2="296.254" gradientUnits="userSpaceOnUse">
<stop stop-color="#4423BE"/>
<stop offset="1" stop-color="#972CDD"/>
</linearGradient>
<linearGradient id="paint1_linear_4_178" x1="134.667" y1="0" x2="134.667" y2="311" gradientUnits="userSpaceOnUse">
<stop stop-color="#4423BE"/>
<stop offset="1" stop-color="#972CDD"/>
</linearGradient>
</defs>
</svg>
