<svg width="270" height="311" viewBox="0 0 270 311" fill="none" xmlns="http://www.w3.org/2000/svg">
<path d="M135.333 14.7457L257.23 85.1229V225.877L135.333 296.254L13.4363 225.877V85.1229L135.333 14.7457Z" fill="url(#paint0_linear_4_198)"/>
<path d="M2.16614 78.616L135.333 1.73205L268.5 78.616V232.384L135.333 309.268L2.16614 232.384V78.616Z" stroke="url(#paint1_linear_4_198)" stroke-width="3"/>
<path d="M172.542 102.583H98.4583C94.2494 102.588 90.2142 104.262 87.2381 107.238C84.262 110.214 82.5879 114.249 82.5833 118.458V171.375C82.5879 175.584 84.262 179.619 87.2381 182.595C90.2142 185.571 94.2494 187.245 98.4583 187.25H159.767L179.383 206.866C180.123 207.606 181.066 208.111 182.093 208.315C183.119 208.519 184.183 208.414 185.15 208.014C186.117 207.613 186.944 206.935 187.525 206.065C188.106 205.195 188.417 204.172 188.417 203.125V118.458C188.412 114.249 186.738 110.214 183.762 107.238C180.786 104.262 176.751 102.588 172.542 102.583ZM151.375 150.208H140.792V160.792C140.792 162.195 140.234 163.541 139.242 164.533C138.249 165.526 136.903 166.083 135.5 166.083C134.097 166.083 132.751 165.526 131.758 164.533C130.766 163.541 130.208 162.195 130.208 160.792V150.208H119.625C118.222 150.208 116.876 149.651 115.883 148.658C114.891 147.666 114.333 146.32 114.333 144.917C114.333 143.513 114.891 142.167 115.883 141.175C116.876 140.183 118.222 139.625 119.625 139.625H130.208V129.042C130.208 127.638 130.766 126.292 131.758 125.3C132.751 124.308 134.097 123.75 135.5 123.75C136.903 123.75 138.249 124.308 139.242 125.3C140.234 126.292 140.792 127.638 140.792 129.042V139.625H151.375C152.778 139.625 154.124 140.183 155.117 141.175C156.109 142.167 156.667 143.513 156.667 144.917C156.667 146.32 156.109 147.666 155.117 148.658C154.124 149.651 152.778 150.208 151.375 150.208Z" fill="white"/>
<defs>
<linearGradient id="paint0_linear_4_198" x1="135.333" y1="14.7457" x2="135.333" y2="296.254" gradientUnits="userSpaceOnUse">
<stop stop-color="#4423BE"/>
<stop offset="1" stop-color="#972CDD"/>
</linearGradient>
<linearGradient id="paint1_linear_4_198" x1="135.333" y1="0" x2="135.333" y2="311" gradientUnits="userSpaceOnUse">
<stop stop-color="#4423BE"/>
<stop offset="1" stop-color="#972CDD"/>
</linearGradient>
</defs>
</svg>
