<svg width="270" height="311" viewBox="0 0 270 311" fill="none" xmlns="http://www.w3.org/2000/svg">
<path d="M1.5 78.616L134.667 1.73205L267.834 78.616V232.384L134.667 309.268L1.5 232.384V78.616Z" stroke="url(#paint0_linear_727_504)" stroke-width="3"/>
<path d="M134.564 14.8335L256.461 85.2106V225.965L134.564 296.342L12.6669 225.965V85.2106L134.564 14.8335Z" fill="url(#paint1_linear_727_504)"/>
<path d="M136.917 156.867C140.029 154.172 142.526 150.84 144.237 147.096C145.948 143.352 146.833 139.283 146.833 135.167C146.833 127.431 143.76 120.013 138.291 114.543C132.821 109.073 125.402 106 117.667 106C109.931 106 102.513 109.073 97.0427 114.543C91.5729 120.013 88.5 127.431 88.5 135.167C88.5 139.283 89.3855 143.352 91.0966 147.096C92.8076 150.84 95.3041 154.172 98.4167 156.867C90.2508 160.564 83.3227 166.536 78.4607 174.067C73.5987 181.597 71.0086 190.369 71 199.333C71 200.88 71.6146 202.364 72.7085 203.458C73.8025 204.552 75.2862 205.167 76.8333 205.167C78.3804 205.167 79.8642 204.552 80.9581 203.458C82.0521 202.364 82.6667 200.88 82.6667 199.333C82.6667 190.051 86.3542 181.148 92.9179 174.585C99.4817 168.021 108.384 164.333 117.667 164.333C126.949 164.333 135.852 168.021 142.415 174.585C148.979 181.148 152.667 190.051 152.667 199.333C152.667 200.88 153.281 202.364 154.375 203.458C155.469 204.552 156.953 205.167 158.5 205.167C160.047 205.167 161.531 204.552 162.625 203.458C163.719 202.364 164.333 200.88 164.333 199.333C164.325 190.369 161.735 181.597 156.873 174.067C152.011 166.536 145.083 160.564 136.917 156.867V156.867ZM117.667 152.667C114.205 152.667 110.822 151.64 107.944 149.717C105.066 147.794 102.823 145.061 101.499 141.864C100.174 138.666 99.8277 135.147 100.503 131.753C101.178 128.358 102.845 125.24 105.292 122.792C107.74 120.345 110.858 118.678 114.253 118.003C117.647 117.328 121.166 117.674 124.364 118.999C127.561 120.323 130.294 122.566 132.217 125.444C134.14 128.322 135.167 131.705 135.167 135.167C135.167 139.808 133.323 144.259 130.041 147.541C126.759 150.823 122.308 152.667 117.667 152.667ZM174.483 154.533C178.216 150.329 180.655 145.136 181.506 139.579C182.356 134.021 181.582 128.336 179.277 123.208C176.972 118.08 173.234 113.728 168.513 110.675C163.792 107.622 158.289 105.998 152.667 106C151.12 106 149.636 106.615 148.542 107.709C147.448 108.803 146.833 110.286 146.833 111.833C146.833 113.38 147.448 114.864 148.542 115.958C149.636 117.052 151.12 117.667 152.667 117.667C157.308 117.667 161.759 119.51 165.041 122.792C168.323 126.074 170.167 130.525 170.167 135.167C170.158 138.231 169.346 141.239 167.81 143.89C166.275 146.541 164.07 148.743 161.417 150.275C160.552 150.774 159.829 151.486 159.319 152.344C158.808 153.202 158.526 154.177 158.5 155.175C158.476 156.165 158.704 157.145 159.163 158.023C159.622 158.901 160.297 159.647 161.125 160.192L163.4 161.708L164.158 162.117C171.19 165.452 177.122 170.727 181.256 177.32C185.39 183.914 187.553 191.551 187.492 199.333C187.492 200.88 188.106 202.364 189.2 203.458C190.294 204.552 191.778 205.167 193.325 205.167C194.872 205.167 196.356 204.552 197.45 203.458C198.544 202.364 199.158 200.88 199.158 199.333C199.206 190.382 196.964 181.566 192.645 173.725C188.326 165.884 182.075 159.278 174.483 154.533V154.533Z" fill="white"/>
<defs>
<linearGradient id="paint0_linear_727_504" x1="134.667" y1="0" x2="134.667" y2="311" gradientUnits="userSpaceOnUse">
<stop stop-color="#4423BE"/>
<stop offset="1" stop-color="#972CDD"/>
</linearGradient>
<linearGradient id="paint1_linear_727_504" x1="134.564" y1="14.8335" x2="134.564" y2="296.342" gradientUnits="userSpaceOnUse">
<stop stop-color="#4423BE"/>
<stop offset="1" stop-color="#972CDD"/>
</linearGradient>
</defs>
</svg>
