<svg xmlns="http://www.w3.org/2000/svg" width="20" height="20" viewBox="0 0 20 20" fill="none">
  <path d="M18.05 8.54167L10.55 1.875C10.3979 1.7414 10.2024 1.66772 10 1.66772C9.7976 1.66772 9.60209 1.7414 9.45002 1.875L1.95002 8.54167C1.82255 8.65443 1.73266 8.80351 1.69243 8.96888C1.65221 9.13424 1.66358 9.30796 1.72502 9.46667C1.78545 9.62328 1.89177 9.75799 2.03006 9.85316C2.16835 9.94833 2.33215 9.99951 2.50002 10H3.33335V17.5C3.33335 17.721 3.42115 17.933 3.57743 18.0893C3.73371 18.2455 3.94567 18.3333 4.16668 18.3333H15.8334C16.0544 18.3333 16.2663 18.2455 16.4226 18.0893C16.5789 17.933 16.6667 17.721 16.6667 17.5V10H17.5C17.6679 9.99951 17.8317 9.94833 17.97 9.85316C18.1083 9.75799 18.2146 9.62328 18.275 9.46667C18.3365 9.30796 18.3478 9.13424 18.3076 8.96888C18.2674 8.80351 18.1775 8.65443 18.05 8.54167ZM10.8334 16.6667H9.16669V14.1667C9.16669 13.9457 9.25448 13.7337 9.41076 13.5774C9.56704 13.4211 9.77901 13.3333 10 13.3333C10.221 13.3333 10.433 13.4211 10.5893 13.5774C10.7456 13.7337 10.8334 13.9457 10.8334 14.1667V16.6667ZM15 16.6667H12.5V14.1667C12.5 13.5036 12.2366 12.8677 11.7678 12.3989C11.2989 11.9301 10.6631 11.6667 10 11.6667C9.33698 11.6667 8.70109 11.9301 8.23225 12.3989C7.76341 12.8677 7.50002 13.5036 7.50002 14.1667V16.6667H5.00002V10H15V16.6667ZM4.69168 8.33334L10 3.61667L15.3084 8.33334H4.69168Z" fill="#91A28F"/>
</svg>