<svg xmlns="http://www.w3.org/2000/svg" width="20" height="20" viewBox="0 0 20 20" fill="none">
  <path d="M9.16666 10.8333C9.00185 10.8333 8.84073 10.8822 8.70369 10.9738C8.56665 11.0653 8.45984 11.1955 8.39676 11.3478C8.33369 11.5 8.31719 11.6676 8.34934 11.8292C8.3815 11.9909 8.46087 12.1394 8.57741 12.2559C8.69395 12.3725 8.84244 12.4518 9.00409 12.484C9.16574 12.5161 9.3333 12.4996 9.48557 12.4366C9.63784 12.3735 9.76799 12.2667 9.85956 12.1296C9.95112 11.9926 10 11.8315 10 11.6667C10 11.4457 9.9122 11.2337 9.75592 11.0774C9.59964 10.9211 9.38768 10.8333 9.16666 10.8333ZM5.83333 10.8333C5.66851 10.8333 5.5074 10.8822 5.37036 10.9738C5.23331 11.0653 5.1265 11.1955 5.06343 11.3478C5.00036 11.5 4.98386 11.6676 5.01601 11.8292C5.04816 11.9909 5.12753 12.1394 5.24408 12.2559C5.36062 12.3725 5.5091 12.4518 5.67076 12.484C5.83241 12.5161 5.99996 12.4996 6.15223 12.4366C6.30451 12.3735 6.43465 12.2667 6.52622 12.1296C6.61779 11.9926 6.66666 11.8315 6.66666 11.6667C6.66666 11.4457 6.57887 11.2337 6.42259 11.0774C6.26631 10.9211 6.05434 10.8333 5.83333 10.8333ZM18.3333 3.33334C18.3333 2.67029 18.0699 2.03441 17.6011 1.56557C17.1323 1.09673 16.4964 0.833336 15.8333 0.833336H4.16666C3.50362 0.833336 2.86774 1.09673 2.3989 1.56557C1.93006 2.03441 1.66666 2.67029 1.66666 3.33334V6.66667C1.67034 7.28338 1.90184 7.87697 2.31666 8.33333C1.90184 8.7897 1.67034 9.38329 1.66666 10V13.3333C1.66666 13.9964 1.93006 14.6323 2.3989 15.1011C2.86774 15.5699 3.50362 15.8333 4.16666 15.8333H9.16666V17.5H2.5C2.27898 17.5 2.06702 17.5878 1.91074 17.7441C1.75446 17.9004 1.66666 18.1123 1.66666 18.3333C1.66666 18.5543 1.75446 18.7663 1.91074 18.9226C2.06702 19.0789 2.27898 19.1667 2.5 19.1667H17.5C17.721 19.1667 17.933 19.0789 18.0893 18.9226C18.2455 18.7663 18.3333 18.5543 18.3333 18.3333C18.3333 18.1123 18.2455 17.9004 18.0893 17.7441C17.933 17.5878 17.721 17.5 17.5 17.5H10.8333V15.8333H15.8333C16.4964 15.8333 17.1323 15.5699 17.6011 15.1011C18.0699 14.6323 18.3333 13.9964 18.3333 13.3333V10C18.3297 9.38329 18.0982 8.7897 17.6833 8.33333C18.0982 7.87697 18.3297 7.28338 18.3333 6.66667V3.33334ZM16.6667 13.3333C16.6667 13.5543 16.5789 13.7663 16.4226 13.9226C16.2663 14.0789 16.0543 14.1667 15.8333 14.1667H4.16666C3.94565 14.1667 3.73369 14.0789 3.57741 13.9226C3.42113 13.7663 3.33333 13.5543 3.33333 13.3333V10C3.33333 9.77899 3.42113 9.56703 3.57741 9.41075C3.73369 9.25447 3.94565 9.16667 4.16666 9.16667H15.8333C16.0543 9.16667 16.2663 9.25447 16.4226 9.41075C16.5789 9.56703 16.6667 9.77899 16.6667 10V13.3333ZM16.6667 6.66667C16.6667 6.88768 16.5789 7.09964 16.4226 7.25592C16.2663 7.4122 16.0543 7.5 15.8333 7.5H4.16666C3.94565 7.5 3.73369 7.4122 3.57741 7.25592C3.42113 7.09964 3.33333 6.88768 3.33333 6.66667V3.33334C3.33333 3.11232 3.42113 2.90036 3.57741 2.74408C3.73369 2.5878 3.94565 2.5 4.16666 2.5H15.8333C16.0543 2.5 16.2663 2.5878 16.4226 2.74408C16.5789 2.90036 16.6667 3.11232 16.6667 3.33334V6.66667ZM9.16666 4.16667C9.00185 4.16667 8.84073 4.21554 8.70369 4.30711C8.56665 4.39868 8.45984 4.52883 8.39676 4.6811C8.33369 4.83337 8.31719 5.00093 8.34934 5.16258C8.3815 5.32423 8.46087 5.47271 8.57741 5.58926C8.69395 5.7058 8.84244 5.78517 9.00409 5.81732C9.16574 5.84948 9.3333 5.83297 9.48557 5.7699C9.63784 5.70683 9.76799 5.60002 9.85956 5.46298C9.95112 5.32594 10 5.16482 10 5C10 4.77899 9.9122 4.56703 9.75592 4.41075C9.59964 4.25447 9.38768 4.16667 9.16666 4.16667ZM5.83333 4.16667C5.66851 4.16667 5.5074 4.21554 5.37036 4.30711C5.23331 4.39868 5.1265 4.52883 5.06343 4.6811C5.00036 4.83337 4.98386 5.00093 5.01601 5.16258C5.04816 5.32423 5.12753 5.47271 5.24408 5.58926C5.36062 5.7058 5.5091 5.78517 5.67076 5.81732C5.83241 5.84948 5.99996 5.83297 6.15223 5.7699C6.30451 5.70683 6.43465 5.60002 6.52622 5.46298C6.61779 5.32594 6.66666 5.16482 6.66666 5C6.66666 4.77899 6.57887 4.56703 6.42259 4.41075C6.26631 4.25447 6.05434 4.16667 5.83333 4.16667Z" fill="#91A28F"/>
</svg>