<svg xmlns="http://www.w3.org/2000/svg" width="20" height="20" viewBox="0 0 20 20" fill="none">
  <path d="M18.05 8.54167L10.55 1.875C10.3979 1.7414 10.2024 1.66772 10 1.66772C9.79758 1.66772 9.60208 1.7414 9.45 1.875L1.95 8.54167C1.82253 8.65443 1.73264 8.80351 1.69242 8.96888C1.65219 9.13424 1.66357 9.30796 1.725 9.46667C1.78543 9.62328 1.89176 9.75799 2.03004 9.85316C2.16833 9.94833 2.33214 9.99951 2.5 10H3.33334V17.5C3.33334 17.721 3.42113 17.933 3.57741 18.0893C3.73369 18.2455 3.94566 18.3333 4.16667 18.3333H15.8333C16.0543 18.3333 16.2663 18.2455 16.4226 18.0893C16.5789 17.933 16.6667 17.721 16.6667 17.5V10H17.5C17.6679 9.99951 17.8317 9.94833 17.97 9.85316C18.1082 9.75799 18.2146 9.62328 18.275 9.46667C18.3364 9.30796 18.3478 9.13424 18.3076 8.96888C18.2674 8.80351 18.1775 8.65443 18.05 8.54167ZM10.8333 16.6667H9.16667V14.1667C9.16667 13.9457 9.25447 13.7337 9.41075 13.5774C9.56703 13.4211 9.77899 13.3333 10 13.3333C10.221 13.3333 10.433 13.4211 10.5893 13.5774C10.7455 13.7337 10.8333 13.9457 10.8333 14.1667V16.6667ZM15 16.6667H12.5V14.1667C12.5 13.5036 12.2366 12.8677 11.7678 12.3989C11.2989 11.9301 10.663 11.6667 10 11.6667C9.33696 11.6667 8.70108 11.9301 8.23224 12.3989C7.76339 12.8677 7.5 13.5036 7.5 14.1667V16.6667H5V10H15V16.6667ZM4.69167 8.33334L10 3.61667L15.3083 8.33334H4.69167Z" fill="url(#paint0_linear_714_205)"/>
  <defs>
    <linearGradient id="paint0_linear_714_205" x1="10" y1="1.66772" x2="10" y2="18.3333" gradientUnits="userSpaceOnUse">
      <stop stop-color="#4423BE"/>
      <stop offset="1" stop-color="#972CDD"/>
    </linearGradient>
  </defs>
</svg>