<svg xmlns="http://www.w3.org/2000/svg" width="20" height="20" viewBox="0 0 20 20" fill="none">
  <path d="M7.5 10H5.83333C5.61232 10 5.40035 10.0878 5.24407 10.2441C5.08779 10.4004 5 10.6123 5 10.8333C5 11.0543 5.08779 11.2663 5.24407 11.4226C5.40035 11.5789 5.61232 11.6667 5.83333 11.6667H7.5C7.72101 11.6667 7.93297 11.5789 8.08925 11.4226C8.24553 11.2663 8.33333 11.0543 8.33333 10.8333C8.33333 10.6123 8.24553 10.4004 8.08925 10.2441C7.93297 10.0878 7.72101 10 7.5 10ZM6.66666 8.33333H10C10.221 8.33333 10.433 8.24553 10.5893 8.08925C10.7455 7.93297 10.8333 7.72101 10.8333 7.5C10.8333 7.27898 10.7455 7.06702 10.5893 6.91074C10.433 6.75446 10.221 6.66667 10 6.66667H6.66666C6.44565 6.66667 6.23369 6.75446 6.07741 6.91074C5.92113 7.06702 5.83333 7.27898 5.83333 7.5C5.83333 7.72101 5.92113 7.93297 6.07741 8.08925C6.23369 8.24553 6.44565 8.33333 6.66666 8.33333ZM7.5 13.3333H5.83333C5.61232 13.3333 5.40035 13.4211 5.24407 13.5774C5.08779 13.7337 5 13.9457 5 14.1667C5 14.3877 5.08779 14.5996 5.24407 14.7559C5.40035 14.9122 5.61232 15 5.83333 15H7.5C7.72101 15 7.93297 14.9122 8.08925 14.7559C8.24553 14.5996 8.33333 14.3877 8.33333 14.1667C8.33333 13.9457 8.24553 13.7337 8.08925 13.5774C7.93297 13.4211 7.72101 13.3333 7.5 13.3333ZM17.5 10H15V2.5C15.0006 2.35316 14.9624 2.20877 14.8892 2.08145C14.816 1.95414 14.7105 1.84842 14.5833 1.775C14.4566 1.70186 14.3129 1.66335 14.1667 1.66335C14.0204 1.66335 13.8767 1.70186 13.75 1.775L11.25 3.20833L8.75 1.775C8.62331 1.70186 8.47961 1.66335 8.33333 1.66335C8.18705 1.66335 8.04335 1.70186 7.91666 1.775L5.41666 3.20833L2.91666 1.775C2.78998 1.70186 2.64628 1.66335 2.5 1.66335C2.35372 1.66335 2.21001 1.70186 2.08333 1.775C1.95616 1.84842 1.85065 1.95414 1.77748 2.08145C1.70431 2.20877 1.66608 2.35316 1.66666 2.5V15.8333C1.66666 16.4964 1.93006 17.1323 2.3989 17.6011C2.86774 18.0699 3.50362 18.3333 4.16666 18.3333H15.8333C16.4964 18.3333 17.1323 18.0699 17.6011 17.6011C18.0699 17.1323 18.3333 16.4964 18.3333 15.8333V10.8333C18.3333 10.6123 18.2455 10.4004 18.0893 10.2441C17.933 10.0878 17.721 10 17.5 10ZM4.16666 16.6667C3.94565 16.6667 3.73369 16.5789 3.57741 16.4226C3.42113 16.2663 3.33333 16.0543 3.33333 15.8333V3.94166L5 4.89166C5.12861 4.95884 5.27156 4.99392 5.41666 4.99392C5.56176 4.99392 5.70472 4.95884 5.83333 4.89166L8.33333 3.45833L10.8333 4.89166C10.9619 4.95884 11.1049 4.99392 11.25 4.99392C11.3951 4.99392 11.538 4.95884 11.6667 4.89166L13.3333 3.94166V15.8333C13.3356 16.1176 13.3863 16.3994 13.4833 16.6667H4.16666ZM16.6667 15.8333C16.6667 16.0543 16.5789 16.2663 16.4226 16.4226C16.2663 16.5789 16.0543 16.6667 15.8333 16.6667C15.6123 16.6667 15.4004 16.5789 15.2441 16.4226C15.0878 16.2663 15 16.0543 15 15.8333V11.6667H16.6667V15.8333ZM11.3 13.475C11.2535 13.4435 11.2031 13.4182 11.15 13.4C11.1004 13.3746 11.0469 13.3577 10.9917 13.35C10.8578 13.3232 10.7194 13.3297 10.5886 13.3689C10.4578 13.4082 10.3387 13.4789 10.2417 13.575C10.0894 13.7347 10.0031 13.946 10 14.1667C9.99867 14.275 10.0185 14.3826 10.0583 14.4833C10.1036 14.5846 10.1656 14.6776 10.2417 14.7583C10.3227 14.8319 10.4157 14.8911 10.5167 14.9333C10.6164 14.9774 10.7243 15.0002 10.8333 15.0002C10.9424 15.0002 11.0502 14.9774 11.15 14.9333C11.251 14.8911 11.344 14.8319 11.425 14.7583C11.5022 14.6805 11.5633 14.5881 11.6048 14.4866C11.6463 14.3851 11.6673 14.2763 11.6667 14.1667C11.6636 13.946 11.5773 13.7347 11.425 13.575C11.3854 13.5392 11.3437 13.5058 11.3 13.475ZM11.4167 10.2417C11.3194 10.1469 11.2004 10.0774 11.07 10.0391C10.9397 10.0008 10.802 9.995 10.6689 10.0221C10.5358 10.0492 10.4114 10.1085 10.3064 10.1947C10.2015 10.2808 10.1191 10.3914 10.0667 10.5167C10.0148 10.6429 9.99473 10.78 10.0082 10.9158C10.0217 11.0516 10.0684 11.182 10.1441 11.2956C10.2198 11.4092 10.3223 11.5024 10.4424 11.5671C10.5626 11.6318 10.6968 11.666 10.8333 11.6667C11.0543 11.6667 11.2663 11.5789 11.4226 11.4226C11.5789 11.2663 11.6667 11.0543 11.6667 10.8333C11.6653 10.7244 11.6427 10.6168 11.6 10.5167C11.5598 10.4126 11.4972 10.3187 11.4167 10.2417Z" fill="url(#paint0_linear_714_209)"/>
  <defs>
    <linearGradient id="paint0_linear_714_209" x1="9.99999" y1="1.66335" x2="9.99999" y2="18.3333" gradientUnits="userSpaceOnUse">
      <stop stop-color="#4423BE"/>
      <stop offset="1" stop-color="#972CDD"/>
    </linearGradient>
  </defs>
</svg>